<svg xmlns="http://www.w3.org/2000/svg" width="148" height="128" viewBox="0 0 148 128">
  <g fill="#fffa7c">
    <path d="M 130.6678771972656 126.5 L 17.33212661743164 126.5 C 14.25819969177246 126.5 11.50587272644043 124.9104156494141 9.969673156738281 122.2478561401367 C 8.433490753173828 119.5853118896484 8.434872627258301 116.4069442749023 9.973381996154785 113.7457427978516 L 66.6412353515625 15.72561931610107 C 68.17819976806641 13.0670919418335 70.92914581298828 11.47990989685059 74 11.47990989685059 C 77.07083892822266 11.47990989685059 79.82178497314453 13.0670919418335 81.35874176025391 15.72561931610107 L 138.0266418457031 113.7457427978516 C 139.5651397705078 116.4069442749023 139.5665283203125 119.5853118896484 138.0303344726562 122.2478713989258 C 136.4941253662109 124.9104156494141 133.7418060302734 126.5 130.6678771972656 126.5 Z" stroke="none"/>
    <path d="M 74 12.97989654541016 C 71.47106170654297 12.97989654541016 69.20558166503906 14.28699493408203 67.93984222412109 16.47637176513672 L 11.27197265625 114.4964752197266 C 10.00497436523438 116.6880798339844 10.00384521484375 119.3055572509766 11.26893615722656 121.4982376098633 C 12.53404235839844 123.6909332275391 14.8006591796875 124.9999923706055 17.33213806152344 124.9999923706055 L 130.6678619384766 124.9999923706055 C 133.1993408203125 124.9999923706055 135.4659576416016 123.6909332275391 136.7310638427734 121.4982376098633 C 137.9961547851562 119.3055572509766 137.9950256347656 116.6880798339844 136.72802734375 114.4964752197266 L 80.06014251708984 16.47637176513672 C 78.79440307617188 14.28699493408203 76.52892303466797 12.97989654541016 74 12.97989654541016 M 74 9.979904174804688 C 77.36609649658203 9.979904174804688 80.73220062255859 11.6448974609375 82.65734100341797 14.97487640380859 L 139.3252258300781 112.9949798583984 C 143.1793823242188 119.6616363525391 138.3684539794922 127.9999923706055 130.6678619384766 127.9999923706055 L 17.33213806152344 127.9999923706055 C 9.631546020507812 127.9999923706055 4.82061767578125 119.6616363525391 8.674774169921875 112.9949798583984 L 65.34264373779297 14.97487640380859 C 67.26779174804688 11.6448974609375 70.63389587402344 9.979904174804688 74 9.979904174804688 Z" stroke="none" fill="#434343"/>
  </g>
</svg>
