<!--?xml version="1.0" encoding="utf-8"?-->
<!-- Generator: Adobe Illustrator 18.1.1, SVG Export Plug-In . SVG Version: 6.00 Build 0)  -->

<svg version="1.1" id="_x32_" xmlns="http://www.w3.org/2000/svg" xmlns:xlink="http://www.w3.org/1999/xlink" x="0px" y="0px" viewBox="0 0 512 512" style="width: 128px; height: 128px; opacity: 1;" xml:space="preserve">
<style type="text/css">
	.st0{fill:#4B4B4B;}
</style>
<g>
	<path class="st0" d="M506.063,129.615c-6.772-19.003-18.83-36.009-34.442-50.798c-23.475-22.155-55.022-39.61-91.828-51.805
		C342.976,14.853,300.837,8.026,256.014,8.017C187.688,8.072,125.62,23.759,79.11,50.431C55.865,63.808,36.431,80.018,22.411,99.03
		c-6.991,9.502-12.607,19.737-16.474,30.585C2.079,140.464,0,151.917,0,163.627v184.756c0,11.701,2.079,23.164,5.937,34.012
		c6.78,19.003,18.838,36,34.442,50.779c23.474,22.155,55.031,39.62,91.838,51.815c36.806,12.159,78.954,18.985,123.796,18.994
		c68.308-0.056,130.366-15.741,176.885-42.424c23.237-13.378,42.671-29.568,56.699-48.599c6.991-9.492,12.599-19.736,16.466-30.566
		c3.866-10.848,5.946-22.311,5.937-34.012V163.627C512.009,151.917,509.929,140.464,506.063,129.615z M472.454,348.382
		c0,7.046-1.228,13.891-3.666,20.744c-4.232,11.93-12.342,23.952-24.354,35.323c-17.958,17.052-44.613,32.289-77.058,42.991
		c-32.435,10.72-70.588,17.006-111.362,16.996c-62.16,0.055-118.216-14.678-157.194-37.154
		c-19.508-11.206-34.662-24.272-44.55-37.741c-4.966-6.753-8.631-13.588-11.059-20.415c-2.446-6.853-3.655-13.698-3.665-20.744
		V222.689c19.746,22.393,47.994,40.646,81.74,54.014c38.804,15.32,85.048,24.106,134.728,24.116
		c66.218-0.028,126.334-15.577,170.893-41.572c17.958-10.519,33.351-22.787,45.548-36.632V348.382z M472.454,170.498
		c-2.557,9.025-6.9,17.85-13.103,26.462c-15.568,21.615-42.946,41.287-78.314,55.224c-35.34,13.972-78.496,22.284-125.024,22.274
		c-62.059,0.027-118.098-14.826-157.616-37.988c-19.755-11.536-35.35-25.106-45.74-39.51c-6.212-8.612-10.565-17.436-13.112-26.462
		v-6.872c0.01-7.056,1.219-13.909,3.665-20.744c4.243-11.949,12.343-23.97,24.354-35.332C85.533,90.5,112.178,75.262,144.623,64.56
		c32.445-10.738,70.598-16.996,111.391-16.996c62.141-0.056,118.189,14.66,157.176,37.154c19.499,11.206,34.654,24.272,44.55,37.751
		c4.947,6.743,8.622,13.578,11.05,20.414c2.438,6.835,3.666,13.688,3.666,20.744V170.498z" style="fill: rgb(75, 75, 75);"></path>
	<path class="st0" d="M130.962,345.606c-7.88-3.152-16.832,0.688-19.984,8.585c-3.143,7.89,0.706,16.842,8.594,19.984
		c7.88,3.143,16.831-0.706,19.974-8.585C142.698,357.701,138.86,348.75,130.962,345.606z" style="fill: rgb(75, 75, 75);"></path>
	<path class="st0" d="M230.367,367.203c-8.475-0.578-15.806,5.836-16.364,14.312c-0.578,8.475,5.836,15.805,14.311,16.383
		c8.476,0.558,15.806-5.856,16.383-14.331C245.256,375.092,238.842,367.761,230.367,367.203z" style="fill: rgb(75, 75, 75);"></path>
	<path class="st0" d="M179.624,360.203h0.01c-8.311-1.769-16.484,3.536-18.252,11.838c-1.778,8.31,3.527,16.483,11.828,18.252
		c8.31,1.769,16.484-3.528,18.243-11.828C193.24,370.144,187.935,361.97,179.624,360.203z" style="fill: rgb(75, 75, 75);"></path>
	<path class="st0" d="M86.889,322.315c-6.973-4.856-16.556-3.124-21.422,3.848c-4.847,6.973-3.115,16.548,3.857,21.414
		c6.964,4.838,16.548,3.115,21.404-3.848C95.585,336.755,93.853,327.162,86.889,322.315z" style="fill: rgb(75, 75, 75);"></path>
	<path class="st0" d="M332.495,360.184c-8.311,1.768-13.607,9.942-11.839,18.252c1.778,8.302,9.951,13.606,18.261,11.839
		c8.302-1.788,13.607-9.96,11.82-18.271C348.968,363.702,340.795,358.398,332.495,360.184z" style="fill: rgb(75, 75, 75);"></path>
	<path class="st0" d="M381.138,345.56c-7.889,3.152-11.719,12.104-8.576,19.984c3.152,7.898,12.104,11.738,19.992,8.585
		c7.88-3.152,11.728-12.104,8.577-19.983C397.989,346.256,389.037,342.409,381.138,345.56z" style="fill: rgb(75, 75, 75);"></path>
	<path class="st0" d="M425.202,322.251c-6.964,4.856-8.677,14.449-3.821,21.422c4.847,6.963,14.441,8.685,21.413,3.82
		c6.964-4.856,8.677-14.45,3.821-21.413C441.768,319.117,432.175,317.403,425.202,322.251z" style="fill: rgb(75, 75, 75);"></path>
	<path class="st0" d="M281.752,367.184c-8.476,0.577-14.89,7.908-14.322,16.383c0.577,8.475,7.898,14.889,16.374,14.312
		c8.484-0.568,14.889-7.898,14.312-16.373C297.557,373.03,290.227,366.617,281.752,367.184z" style="fill: rgb(75, 75, 75);"></path>
	<path class="st0" d="M256.014,55.929c-36.404,0-54.894,54.454-54.894,77.782c0,23.337,18.49,38.896,54.894,38.896
		c36.367,0,54.875-15.558,54.875-38.896C310.888,110.382,292.38,55.929,256.014,55.929z" style="fill: rgb(75, 75, 75);"></path>
</g>
</svg>
